<svg width="150" height="91" viewBox="0 0 150 91" fill="none" xmlns="http://www.w3.org/2000/svg">
  <path d="M10.237 2L2 10.237V81.6925L10.237 89.9295" stroke="#00FFD1" stroke-width="3"/>
  <path d="M139.763 89.9297L148 81.6927L148 10.2372L139.763 2.00021" stroke="#00FFD1" stroke-width="3"/>
  <path d="M75.3089 8.35547V19.2694" stroke="#00FFD1" stroke-width="3"/>
  <path d="M75.3089 40.5078V51.4218" stroke="#00FFD1"/>
  <path d="M75.3089 72.7192V83.6332" stroke="#00FFD1" stroke-width="3"/>
  <path d="M115.67 46.0679L104.756 46.0679" stroke="#00FFD1" stroke-width="3"/>
  <path d="M44.2144 46.0679L33.3004 46.0679" stroke="#00FFD1" stroke-width="3"/>
  <path d="M80.6629 46.0679L69.7489 46.0679" stroke="#00FFD1"/>
  <path d="M93.2242 36.801V36.801C93.2242 31.9107 89.2599 27.9463 84.3695 27.9463H65.8364C60.9461 27.9463 56.9817 31.9107 56.9817 36.801V36.801" stroke="#00FFD1"/>
  <path d="M56.9817 55.7463V55.7463C56.9817 60.6367 60.9461 64.6011 65.8364 64.6011L84.3695 64.6011C89.2599 64.6011 93.2243 60.6367 93.2243 55.7464V55.7464" stroke="#00FFD1"/>
</svg>
