<svg width="303" height="465" viewBox="0 0 303 465" fill="none" xmlns="http://www.w3.org/2000/svg">
  <mask id="path-1-inside-1_12_2243" fill="white">
    <path fill-rule="evenodd" clip-rule="evenodd" d="M212 0C206.477 0 202.102 4.52119 201.032 9.93934C196.408 33.3479 175.765 51 151 51C126.235 51 105.592 33.3479 100.968 9.93935C99.8977 4.5212 95.5228 0 90 0H10C4.47715 0 0 4.47714 0 9.99999V455C0 460.523 4.47716 465 10 465H90C95.5228 465 99.8977 460.479 100.968 455.061C105.592 431.652 126.235 414 151 414C175.765 414 196.408 431.652 201.032 455.061C202.102 460.479 206.477 465 212 465H293C298.523 465 303 460.523 303 455V10C303 4.47715 298.523 0 293 0H212Z"/>
  </mask>
  <path fill-rule="evenodd" clip-rule="evenodd" d="M212 0C206.477 0 202.102 4.52119 201.032 9.93934C196.408 33.3479 175.765 51 151 51C126.235 51 105.592 33.3479 100.968 9.93935C99.8977 4.5212 95.5228 0 90 0H10C4.47715 0 0 4.47714 0 9.99999V455C0 460.523 4.47716 465 10 465H90C95.5228 465 99.8977 460.479 100.968 455.061C105.592 431.652 126.235 414 151 414C175.765 414 196.408 431.652 201.032 455.061C202.102 460.479 206.477 465 212 465H293C298.523 465 303 460.523 303 455V10C303 4.47715 298.523 0 293 0H212Z" fill="url(#paint0_linear_12_2243)"/>
  <path d="M201.032 455.061L199.07 455.448L201.032 455.061ZM201.032 9.93934L199.07 9.55175L201.032 9.93934ZM151 53C176.739 53 198.188 34.6545 202.994 10.3269L199.07 9.55175C194.627 32.0414 174.792 49 151 49V53ZM99.0059 10.3269C103.812 34.6545 125.261 53 151 53V49C127.208 49 107.373 32.0414 102.93 9.55176L99.0059 10.3269ZM10 2H90V-2H10V2ZM2 455V9.99999H-2V455H2ZM90 463H10V467H90V463ZM102.93 455.448C107.373 432.959 127.208 416 151 416V412C125.261 412 103.812 430.346 99.0059 454.673L102.93 455.448ZM151 416C174.792 416 194.627 432.959 199.07 455.448L202.994 454.673C198.188 430.346 176.739 412 151 412V416ZM293 463H212V467H293V463ZM301 10V455H305V10H301ZM212 2H293V-2H212V2ZM305 10C305 3.37258 299.627 -2 293 -2V2C297.418 2 301 5.58172 301 10H305ZM293 467C299.627 467 305 461.627 305 455H301C301 459.418 297.418 463 293 463V467ZM199.07 455.448C200.278 461.564 205.297 467 212 467V463C207.657 463 203.927 459.393 202.994 454.673L199.07 455.448ZM90 467C96.7026 467 101.722 461.564 102.93 455.448L99.0059 454.673C98.0734 459.393 94.3431 463 90 463V467ZM-2 455C-2 461.627 3.37259 467 10 467V463C5.58172 463 2 459.418 2 455H-2ZM10 -2C3.37259 -2 -2 3.37257 -2 9.99999H2C2 5.58172 5.58172 2 10 2V-2ZM102.93 9.55176C101.722 3.43589 96.7026 -2 90 -2V2C94.3431 2 98.0734 5.60652 99.0059 10.3269L102.93 9.55176ZM202.994 10.3269C203.927 5.60651 207.657 2 212 2V-2C205.297 -2 200.278 3.43588 199.07 9.55175L202.994 10.3269Z" fill="url(#paint1_linear_12_2243)" mask="url(#path-1-inside-1_12_2243)"/>
  <defs>
    <linearGradient id="paint0_linear_12_2243" x1="151" y1="397.5" x2="151" y2="289.5" gradientUnits="userSpaceOnUse">
      <stop stop-opacity="0.7"/>
      <stop offset="1" stop-opacity="0"/>
    </linearGradient>
    <linearGradient id="paint1_linear_12_2243" x1="22" y1="-23.5" x2="303" y2="500" gradientUnits="userSpaceOnUse">
      <stop stop-color="#FAC131" stop-opacity="0.49"/>
      <stop offset="1" stop-color="#C89209" stop-opacity="0.49"/>
    </linearGradient>
  </defs>
</svg>
